# xmcd
#
# Track frame offsets: 
#        150
#        13360
#        22632
#        35839
#        44989
#        57077
#        65615
#        79997
#        92377
#        105156
#        116219
#        125799
#        136445
#        147472
#
# Disc length: 2136 seconds
#
# Revision: 0
# Processed by: cddbd v1.5.2PL0 Copyright (c) Steve Scherf et al.
# Submitted via: ExactAudioCopyFreeDBPlugin 1.0
#
DISCID=cc08560e
DTITLE=鄧麗君 - 麗風絕版黑膠經典 Disc 1
DYEAR=1900
DGENRE=Pop
TTITLE0=少年愛姑娘
TTITLE1=路邊的野花不要採
TTITLE2=這裡只有我們倆
TTITLE3=異鄉人
TTITLE4=藍色的姑娘
TTITLE5=愛的世界
TTITLE6=愛的播種
TTITLE7=誰是心上人
TTITLE8=愛情多美好
TTITLE9=想你想斷腸
TTITLE10=愛似輕風情似細雨
TTITLE11=情人山坡只有我
TTITLE12=不是春雨沒有來
TTITLE13=後悔愛上你
EXTD=
EXTT0=
EXTT1=
EXTT2=
EXTT3=
EXTT4=
EXTT5=
EXTT6=
EXTT7=
EXTT8=
EXTT9=
EXTT10=
EXTT11=
EXTT12=
EXTT13=
PLAYORDER=
